<svg width="256" height="115" viewBox="0 0 256 115" fill="none" xmlns="http://www.w3.org/2000/svg">
<path d="M77.5688 29.2738C78.8229 27.8708 80.5398 27.0969 82.4858 27.431C83.4676 27.5997 84.201 28.0256 84.7114 28.6351C85.2255 29.2491 85.5432 30.0857 85.6235 31.1195C85.9893 35.8251 84.136 39.9167 81.9224 44.0062C79.2985 48.8534 75.9252 53.1859 71.9917 57.0258C69.5013 59.4569 68.329 62.1683 68.606 65.6498C68.7103 66.9611 69.1487 68.0534 69.9956 68.6283C70.8698 69.2217 72.0027 69.1512 73.2173 68.5238C74.8834 67.6631 76.3746 66.3543 77.6353 65.0101C79.39 63.139 80.5614 60.9045 81.4614 58.4916C83.163 53.9295 85.6063 49.9217 90.0581 47.683C91.7597 46.8273 93.4407 46.3304 95.0659 46.3539C96.6799 46.3772 98.2722 46.9139 99.812 48.182C102.518 50.4107 102.823 53.5141 102.444 56.8988C102.397 57.3203 102.37 57.6948 102.394 58.0092C102.418 58.3223 102.497 58.6445 102.722 58.8978C102.954 59.1583 103.269 59.2668 103.59 59.3051C103.906 59.3426 104.285 59.319 104.716 59.266C105.874 59.1235 106.678 58.6036 107.268 57.8695C107.838 57.1592 108.199 56.2583 108.519 55.3754L108.667 54.9662L108.282 54.7631C107.696 54.454 107.526 54.1318 107.49 53.8197C107.446 53.4484 107.575 52.9798 107.832 52.3617C108.125 51.6544 108.35 50.9238 108.564 50.2162C108.78 49.5012 108.985 48.8113 109.246 48.1459C109.611 47.211 110.71 46.5065 111.993 46.2875C113.277 46.0682 114.502 46.3759 115.106 47.1586C115.298 47.4083 115.417 47.784 115.484 48.2709C115.55 48.7551 115.557 49.2705 115.577 49.7845C115.586 50.0396 115.529 50.3183 115.426 50.6683C115.332 50.9906 115.181 51.4248 115.074 51.8519L114.62 53.6605L115.917 52.3217C118.236 49.9312 120.381 47.894 123.426 47.1742C125.617 46.6565 127.373 47.1506 128.444 48.2367C129.514 49.3223 129.997 51.1003 129.43 53.3568C129.025 54.9702 128.459 56.5499 127.849 58.1381C127.243 59.717 126.587 61.3205 126.022 62.9379C125.625 64.0733 125.347 65.2581 125.159 66.4349C125.109 66.7449 125.131 67.1182 125.209 67.4457C125.249 67.6121 125.307 67.7827 125.387 67.9369C125.466 68.0867 125.582 68.2519 125.753 68.3695C126.049 68.5722 126.469 68.6726 126.827 68.6967C127.014 68.7092 127.21 68.7032 127.394 68.6683C127.57 68.6349 127.781 68.5666 127.951 68.4203C128.661 67.8095 129.328 67.1549 129.98 66.5052C130.636 65.8518 131.272 65.2057 131.939 64.5922C132.129 64.4171 132.407 64.2061 132.662 64.0609C132.79 63.9877 132.894 63.9425 132.965 63.9222C132.969 63.9213 132.972 63.9201 132.975 63.9193C133.201 64.0494 133.318 64.2141 133.363 64.392C133.415 64.596 133.392 64.8897 133.2 65.2719C131.966 67.7282 130.405 69.6388 128.477 70.9506C126.552 72.2602 124.234 72.9919 121.452 73.0511C120.612 73.069 119.973 72.8291 119.507 72.4135C119.037 71.9931 118.698 71.3527 118.54 70.4935C118 67.5644 118.888 64.8903 120.063 62.1293C121.068 59.768 122.001 57.3759 122.938 54.9984C123.13 54.5107 123.287 53.9626 123.329 53.4086C123.381 52.6999 123.213 52.0519 122.711 51.6537C122.216 51.2609 121.541 51.2277 120.847 51.4056C118.828 51.9234 117.158 53.1534 116.183 54.9135C114.263 58.3793 112.538 61.9543 110.864 65.5316C109.946 67.4937 109.277 69.6168 108.516 71.5795C108.243 72.2839 107.932 72.6961 107.407 72.9554C106.843 73.2335 105.965 73.3698 104.471 73.3246C103.961 73.3092 103.602 73.1424 103.354 72.8988C103.1 72.6499 102.923 72.2826 102.855 71.8099C102.767 71.2009 102.903 70.4734 103.129 69.7992C103.954 67.3479 104.862 64.9301 105.752 62.4594L106.02 61.7172L105.236 61.7924C104.227 61.8879 103.142 61.9153 102.128 62.1293C101.796 62.1994 101.53 62.4354 101.354 62.6351C101.165 62.8492 101.007 63.1041 100.904 63.3334C99.2501 66.9975 97.2571 70.2107 93.5659 71.9115C91.1149 73.0408 88.6212 73.6446 85.9702 73.1097C84.1656 72.7456 82.8362 72.05 81.9106 71.0326C80.9852 70.0153 80.4203 68.6287 80.2319 66.8021L80.1313 65.8256L79.4009 66.4818C77.8157 67.9039 76.3871 69.3917 74.7251 70.6283C72.5923 72.2152 70.1477 73.0758 67.4468 73.058C66.2209 73.0498 65.2114 72.6691 64.4741 72.015C63.737 71.361 63.2373 70.4035 63.0864 69.1801C62.9778 68.2995 62.9073 67.4247 62.8198 66.5531L62.7036 65.3939L61.9438 66.2758C60.8285 67.5701 59.8894 68.8663 58.7173 69.9779C56.7807 71.8143 54.4368 72.8565 51.7427 73.059C51.03 73.1124 50.4484 72.9658 49.9849 72.6771C49.5194 72.3872 49.1399 71.933 48.8696 71.3197C48.3605 70.1641 48.1546 68.934 47.7896 67.6566L47.5063 66.6654L46.9028 67.5013C45.233 69.8145 43.2586 71.8549 40.3892 72.8597C37.8952 73.733 35.9579 73.3167 34.6626 72.264C33.352 71.1989 32.6157 69.4156 32.6763 67.4027C32.9356 58.787 36.9572 52.3634 44.0796 47.7035C45.8836 46.5232 47.97 46.2417 50.144 46.4594C51.5979 46.6049 52.6479 47.3804 53.2271 48.8636L53.5249 49.6254L54.0669 49.014C55.316 47.6067 56.353 46.4937 58.1733 46.6918C58.9539 46.7767 59.4405 47.0672 59.6821 47.4271C59.9175 47.778 59.9942 48.3056 59.7212 49.0365C58.239 53.0045 56.607 56.9777 55.2251 61.0121C54.616 62.7902 54.3478 64.709 54.2036 66.5492C54.1276 67.5203 54.4754 68.3596 55.1812 68.7377C55.9027 69.1242 56.7747 68.9122 57.4858 68.2406C59.1335 66.6839 60.4845 64.7487 61.9478 62.9955L61.9556 62.9867L61.9624 62.9779C63.5041 60.9523 63.8937 58.5904 64.4585 56.4886C66.371 49.3714 68.7189 42.4275 72.395 36.0638C73.7987 33.6339 75.657 31.4128 77.5688 29.2738ZM96.5601 49.6625C95.134 49.0342 93.7223 49.5284 92.6372 50.475C92.5497 50.5513 92.4584 50.6271 92.3589 50.7094C92.2616 50.7898 92.1569 50.8757 92.0552 50.9662C91.8531 51.146 91.6395 51.3603 91.4741 51.6224C90.4676 53.2178 89.2939 54.862 88.4917 56.6508C87.1507 59.6408 86.3506 62.8619 87.0034 66.2552C87.1341 66.9343 87.311 67.7182 87.7476 68.3715C88.2042 69.0547 88.9163 69.5566 90.021 69.7328L90.1802 69.7582L90.3237 69.6869C90.8228 69.4375 91.3308 69.2765 91.9321 69.0219C92.4863 68.7872 93.0788 68.4845 93.4976 67.9886C97.0844 63.7408 99.0914 58.8185 98.6187 53.099C98.5106 51.7918 98.0151 50.3036 96.5601 49.6625ZM48.4146 49.3148L48.2905 49.3187L48.1831 49.3793C47.8739 49.5529 47.5779 49.6921 47.231 49.8744C46.9017 50.0474 46.5569 50.2443 46.2417 50.4955C43.2397 52.888 41.0962 55.9555 39.7603 59.4994C38.8877 61.8141 38.7412 64.3172 39.4292 66.7504C39.6819 67.6441 40.2248 68.2893 40.9741 68.5551C41.7146 68.8177 42.5537 68.6731 43.3364 68.2084H43.3374C43.6981 67.9941 44.0783 67.7352 44.4028 67.4135C48.2747 63.5752 50.341 58.7055 52.0493 53.8011C52.5059 52.4903 52.4076 51.3124 51.6948 50.4701C50.9969 49.6454 49.8198 49.2767 48.4146 49.3148ZM81.2993 30.6078C81.0378 31.0986 80.7859 31.5808 80.5239 32.0619C78.9611 34.9318 77.393 37.8057 75.7925 40.8881L75.7798 40.9125L75.77 40.9388C74.259 44.8493 72.7478 48.7598 71.2368 52.6703L71.061 53.1254L71.5112 53.3129C71.638 53.3655 71.7653 53.4184 71.8921 53.4711L72.229 53.6107L72.4644 53.3324C75.3959 49.8827 78.1935 46.2495 80.0093 42.0023C81.2492 39.1019 82.1295 36.0376 83.0767 33.0746C83.1932 32.7097 83.1578 32.3325 83.1118 32.0306C83.0583 31.6793 83.001 31.4637 82.9771 31.1947L82.9526 30.9261L82.7153 30.7982L81.9771 30.4027L81.5347 30.1654L81.2993 30.6078Z" fill="#020202" stroke="white"/>
<path d="M130.39 0.775391C136.041 0.36714 141.683 0.375577 147.298 1.05469C148.347 1.18158 149.142 1.54274 149.689 2.0957C150.234 2.64606 150.579 3.43241 150.648 4.49707C150.878 8.06287 150.933 11.648 150.934 15.2344C150.935 18.7066 150.737 22.0945 150.692 25.6016C150.615 31.6083 150.492 37.6322 150.57 43.6514C150.654 50.1553 150.792 56.7772 153.18 63.0898C153.622 64.2575 154.198 65.3679 154.861 66.4365L155.219 67.0156C155.199 67.0518 155.178 67.0879 155.158 67.125L155.01 67.3936L155.182 67.6465C155.314 67.8409 155.482 68.0774 155.645 68.332C156.667 69.9286 157.849 70.9196 159.276 71.0674C160.687 71.2134 162.166 70.5137 163.741 69.1592C166.842 66.4911 168.74 62.9446 170.182 59.293C171.401 56.2066 172.248 52.9498 173.221 49.8291C173.284 49.6282 173.291 49.4301 173.29 49.2754C173.289 49.1975 173.285 49.118 173.283 49.0527C173.28 48.9836 173.278 48.9252 173.279 48.8711C173.281 48.7142 173.266 48.5498 173.251 48.4062C173.235 48.2522 173.22 48.1251 173.21 47.999C173.201 47.8737 173.202 47.7885 173.21 47.7334C173.211 47.7298 173.211 47.7265 173.211 47.7236C173.89 47.0657 174.625 46.4663 175.388 46.2217C176.355 45.9119 177.444 45.9357 178.619 45.9023C178.942 45.8932 179.175 45.9121 179.336 45.9512C179.494 45.9893 179.55 46.0373 179.571 46.0625C179.59 46.0856 179.625 46.1436 179.629 46.2979C179.634 46.4584 179.602 46.6872 179.515 47.0078C178.834 49.5235 178.19 52.0252 177.207 54.3711C174.711 60.3246 171.721 65.9761 167.187 70.5771C165.065 72.7305 162.641 74.3917 159.396 74.4873L158.912 74.501V74.9873C158.912 75.0461 158.906 75.1153 158.898 75.2051C158.89 75.2877 158.878 75.3956 158.872 75.499C158.859 75.7019 158.855 75.9836 158.966 76.2539C160.037 78.8618 161.092 81.5051 162.296 84.0771C163.282 86.1824 165.119 87.1528 167.337 87.3945C172.538 87.9611 175.802 91.8493 176.917 97.1299C177.649 100.592 177.275 103.887 175.17 106.813C174.9 107.189 174.587 107.51 174.236 107.91C173.153 109.147 173.402 110.95 174.866 111.771C175.283 112.006 175.749 112.193 176.136 112.366C176.542 112.548 176.889 112.724 177.169 112.957C177.302 113.067 177.416 113.258 177.541 113.562C177.602 113.71 177.656 113.862 177.72 114.033C177.722 114.039 177.725 114.045 177.727 114.051C177.71 114.058 177.693 114.065 177.676 114.072C177.496 114.15 177.339 114.221 177.179 114.284C176.848 114.415 176.635 114.456 176.487 114.427C175.51 114.234 174.503 113.843 173.739 113.273C171.285 111.445 168.448 110.966 165.703 110.523C162.92 110.075 160.794 108.941 159.225 107.307C157.653 105.668 156.615 103.5 156.061 100.944C155.334 97.5872 155.781 94.4247 157.529 91.3994C158.917 88.996 158.76 86.4766 157.369 84.0879C154.871 79.7981 152.328 75.5562 149.96 71.2148C146.421 64.7249 144.934 57.6253 144.304 50.2754C144.123 48.1622 144.025 46.0381 143.933 43.9062C143.906 43.2727 143.762 42.6946 143.344 42.292C142.924 41.887 142.333 41.7607 141.658 41.7734C138.158 41.8398 134.654 41.8202 131.145 41.8018C130.377 41.7977 129.952 41.6569 129.707 41.4502C129.473 41.2538 129.309 40.918 129.258 40.2852C129.232 39.9586 129.234 39.7289 129.26 39.5645C129.285 39.4059 129.327 39.3408 129.356 39.3096C129.386 39.2776 129.451 39.2305 129.613 39.1924C129.78 39.1531 130.016 39.1321 130.352 39.1318C134.176 39.1293 138.008 39.1465 141.837 39.1172C142.097 39.1152 142.414 39.0836 142.708 39.0049C142.977 38.9325 143.336 38.7923 143.551 38.4961C143.747 38.2266 143.864 37.8672 143.91 37.5371C143.949 37.2551 143.946 36.917 143.835 36.6221L143.782 36.499C143.616 36.1732 143.282 35.9501 143 35.8154C142.704 35.6736 142.35 35.5751 142.033 35.5713C138.156 35.5249 134.278 35.5302 130.403 35.5693C129.9 35.5744 129.633 35.5052 129.489 35.3984C129.38 35.3178 129.25 35.1433 129.245 34.6396C129.24 34.1523 129.372 34.0301 129.453 33.9785C129.595 33.8876 129.854 33.8433 130.333 33.8467C134.226 33.8738 138.072 33.83 141.951 33.8779C142.47 33.8843 142.986 33.8048 143.38 33.5098C143.804 33.193 143.988 32.7074 143.995 32.1328C144.001 31.5369 143.811 31.0448 143.375 30.7314C142.975 30.4447 142.456 30.3747 141.953 30.3799C140.02 30.4 138.085 30.3975 136.148 30.3955C134.212 30.3936 132.273 30.3918 130.333 30.4111C129.867 30.4158 129.629 30.332 129.501 30.2275C129.39 30.1357 129.274 29.952 129.252 29.5117C129.231 29.0737 129.302 28.8887 129.373 28.8066C129.431 28.7392 129.585 28.6321 130.059 28.6377C134.021 28.6845 138.004 28.6493 141.955 28.6719C142.372 28.6743 142.848 28.6434 143.245 28.4199C143.685 28.1715 143.94 27.741 144.02 27.1523C144.105 26.5285 144.07 25.9215 143.679 25.4854C143.292 25.0537 142.687 24.9359 142.03 24.9346C138.158 24.9265 134.282 24.9119 130.406 24.9453C129.902 24.9497 129.629 24.8891 129.481 24.7852C129.378 24.713 129.245 24.5527 129.246 24.0439C129.246 23.5617 129.384 23.4408 129.475 23.3867C129.635 23.2922 129.907 23.2565 130.375 23.2578C134.203 23.2687 138.034 23.2764 141.866 23.2305C142.165 23.2269 142.507 23.1633 142.813 23.0498C143.107 22.941 143.444 22.7578 143.651 22.4639C143.852 22.178 143.939 21.792 143.956 21.46C143.972 21.1309 143.925 20.7323 143.738 20.4277C143.543 20.1114 143.189 19.9258 142.903 19.8203C142.596 19.7075 142.251 19.644 141.955 19.6406C138.124 19.5974 134.291 19.6149 130.466 19.6152C129.999 19.6152 129.704 19.5573 129.528 19.4414C129.399 19.3563 129.253 19.1863 129.247 18.6982C129.24 18.2301 129.324 18.0165 129.417 17.9131C129.497 17.8226 129.68 17.7133 130.164 17.7178C134.019 17.7543 137.807 17.6947 141.643 17.7568C142.211 17.766 142.8 17.705 143.25 17.4053C143.749 17.0738 143.972 16.53 143.963 15.8389C143.959 15.4823 143.892 15.1638 143.749 14.8926C143.602 14.616 143.389 14.417 143.14 14.2812C142.672 14.026 142.08 13.9996 141.561 14.0068C137.87 14.0582 134.198 14.0169 130.493 14.0381C129.995 14.0409 129.699 14.0135 129.515 13.9131C129.408 13.8542 129.257 13.7273 129.246 13.2168C129.239 12.9198 129.284 12.7488 129.332 12.6523C129.373 12.5674 129.428 12.5176 129.506 12.4795C129.597 12.4354 129.729 12.4038 129.92 12.3877C130.113 12.3716 130.326 12.3735 130.577 12.375C132.446 12.386 134.315 12.3891 136.183 12.3926C138.051 12.3961 139.919 12.3997 141.786 12.4111C142.241 12.4139 142.812 12.4061 143.261 12.1562C143.505 12.0204 143.709 11.8175 143.844 11.5361C143.976 11.2633 144.032 10.9416 144.03 10.5781C144.028 10.2109 143.968 9.88768 143.83 9.61621C143.686 9.33508 143.473 9.13954 143.224 9.01367C142.773 8.78555 142.2 8.79357 141.767 8.7959C137.952 8.81642 134.107 8.78175 130.281 8.8291C129.804 8.83495 129.581 8.74176 129.47 8.6416C129.368 8.54895 129.263 8.35963 129.255 7.91504C129.248 7.47611 129.371 7.3823 129.437 7.34277C129.574 7.26114 129.824 7.22466 130.28 7.23145C134.149 7.28908 138.033 7.29394 141.895 7.33594C142.363 7.34101 142.895 7.30716 143.319 7.03711C143.791 6.73652 144.015 6.22699 144.044 5.55859C144.069 5.00715 144.004 4.46213 143.642 4.07324C143.276 3.67927 142.729 3.5764 142.138 3.58398C140.206 3.60892 138.272 3.60712 136.335 3.60449C134.4 3.60187 132.459 3.59875 130.519 3.62109C129.993 3.62711 129.702 3.55181 129.539 3.43164C129.407 3.33475 129.268 3.13897 129.25 2.62598C129.227 1.92741 129.334 1.48106 129.51 1.21191C129.666 0.973848 129.92 0.809391 130.39 0.775391ZM166.087 89.7773C163.506 89.7328 160.965 91.0444 159.22 93.6855L159.21 93.7012L159.202 93.7168C157.859 96.1028 157.824 98.8673 158.658 101.309C159.49 103.747 161.204 105.906 163.424 107.091C167.77 109.409 172.848 107.642 174.264 103.013C175.242 99.8176 174.913 96.7007 172.982 93.8398C171.211 91.2165 168.665 89.8218 166.087 89.7773ZM176.518 15.7715C174.044 24.5207 170.896 33.0126 166.992 41.249C163.239 49.1655 159.788 57.2374 156.202 65.2119C156.104 65.43 155.993 65.6377 155.877 65.8486C156.308 63.87 156.016 61.9035 154.95 60.3057C154.041 58.9437 153.773 57.7586 153.891 56.5928C154.012 55.4021 154.537 54.1843 155.314 52.7676C162.066 40.4534 168.682 28.0996 176.205 16.2607C176.309 16.0964 176.413 15.9334 176.518 15.7715Z" fill="#030303" stroke="white"/>
<path d="M222.812 28.9958C224.444 27.7895 225.949 27.0443 227.79 27.5281C228.642 27.752 229.293 28.1751 229.749 28.7439C230.206 29.3144 230.489 30.0585 230.559 30.9548C230.864 34.847 229.691 38.3883 227.953 41.8748C225.127 47.545 221.275 52.4843 216.936 57.1033C216.248 57.8358 215.682 58.5273 215.006 59.1902C213.832 60.3405 213.712 61.8397 213.592 63.1052C213.515 63.909 213.557 64.7339 213.568 65.4822C213.588 66.8386 214.01 67.925 214.894 68.5085C215.775 69.0897 216.953 69.0644 218.236 68.574C220.568 67.6827 222.082 65.8292 223.373 64.0339C224.493 62.4763 225.334 60.7098 226.138 59.0212C228.507 54.0489 231.65 49.8211 236.599 47.3962C238.068 46.6769 239.957 46.5426 241.773 46.5066C243.13 46.4797 244.203 47.357 244.864 48.8699L245.193 49.6238L245.711 48.9841C246.831 47.5984 247.845 46.6088 249.521 46.6892C250.487 46.7355 251.029 47.0286 251.28 47.3962C251.527 47.7578 251.598 48.3489 251.255 49.2458C249.701 53.3005 248.065 57.3558 246.6 61.4626C246.044 63.0217 245.787 64.6994 245.625 66.3074C245.583 66.725 245.715 67.1901 245.899 67.5681C246.083 67.9443 246.368 68.336 246.726 68.5515C246.934 68.6764 247.176 68.7047 247.371 68.7039C247.577 68.703 247.795 68.6691 248 68.615C248.389 68.5122 248.844 68.3078 249.117 68.0046C250.167 66.8381 251.136 65.593 252.09 64.3611L253.041 63.1365C253.197 62.9366 253.321 62.6886 253.404 62.5398C253.503 62.3617 253.569 62.2707 253.634 62.2205H253.635C253.79 62.0993 254.001 61.9603 254.191 61.8708C254.269 61.8342 254.331 61.8132 254.375 61.8015C254.43 61.8508 254.502 61.9393 254.583 62.0906C254.683 62.2763 254.764 62.4912 254.852 62.7185C254.849 62.733 254.845 62.7548 254.836 62.7839C254.803 62.8823 254.751 62.9874 254.689 63.1199C253.063 66.5882 251.033 69.6538 247.704 71.5095C246.417 72.2267 244.912 72.6448 243.394 73.0212C242.36 73.2779 241.112 72.6205 240.575 71.3669C240.069 70.187 239.849 68.9395 239.475 67.6326L239.184 66.6121L238.583 67.4861C237.205 69.4897 235.559 71.4171 233.216 72.3376C231.744 72.9156 230.068 73.3282 228.651 73.1267C227.256 72.9283 226.326 72.3867 225.706 71.531C225.071 70.6547 224.716 69.3871 224.614 67.6541L224.555 66.6667L223.796 67.2986C222.291 68.5474 220.949 69.8465 219.397 70.907C217.404 72.2697 215.179 73.0523 212.725 73.0632C210.947 73.0711 209.904 72.5308 209.243 71.7644C208.56 70.9721 208.222 69.8684 208.011 68.6287C207.991 68.5086 207.988 68.3741 207.993 68.1755C207.998 67.9875 208.01 67.7304 208.01 67.4314V66.2332L207.159 67.0759C206.47 67.7577 205.833 68.4824 205.249 69.0935C204.649 69.7213 204.07 70.2673 203.427 70.6863C201.887 71.6881 200.107 72.4443 198.316 72.9666C197.299 73.2634 196.388 73.1055 195.664 72.6287C194.932 72.147 194.351 71.3127 194.064 70.1941C193.86 69.398 193.817 68.6122 193.737 68.075L193.599 67.1511L192.907 67.7781C191.609 68.9539 190.243 70.3495 188.691 71.5564C186.933 72.9241 184.901 73.6335 182.726 73.2625C181.449 73.0445 180.442 72.4042 179.729 71.4246C179.011 70.437 178.575 69.0779 178.507 67.4109C178.359 63.8251 179.488 60.5142 181.174 57.3455C182.993 53.9264 185.364 50.9466 188.455 48.6013C190.454 47.0844 192.685 46.3404 195.212 46.4236C196.126 46.4537 196.881 46.649 197.495 47.0242C198.104 47.3968 198.609 47.9682 198.99 48.8123L199.276 49.447L199.786 48.9724C200.414 48.3878 201.005 47.8136 201.631 47.2615C202.434 46.5526 203.444 46.5684 204.571 46.7673C205.073 46.8561 205.377 47.1293 205.525 47.5017C205.681 47.8951 205.683 48.4577 205.432 49.1169C203.936 53.0474 202.36 56.9794 200.954 60.9626C200.389 62.5622 200.083 64.2741 199.92 65.9382C199.875 66.3918 199.963 66.9177 200.129 67.3767C200.29 67.8248 200.559 68.3004 200.951 68.574C201.19 68.7406 201.48 68.7514 201.688 68.7351C201.916 68.7173 202.16 68.657 202.39 68.5779C202.845 68.4216 203.341 68.1597 203.667 67.866C206.628 65.1993 208.26 61.8808 209.159 57.9851C211.098 49.5853 213.915 41.4801 218.488 34.1414C219.055 33.231 219.753 32.3897 220.51 31.5437C221.242 30.7267 222.056 29.875 222.812 28.9958ZM242.574 49.6501C241.24 48.7513 239.674 49.156 238.565 50.0164C234.676 53.0335 232.031 56.9044 230.978 62.0417L230.968 62.0925L230.969 62.1453C230.973 62.7297 230.93 63.2666 230.917 63.8992C230.904 64.5007 230.922 65.1315 231.066 65.7478C231.18 66.2338 231.394 66.7726 231.68 67.2458C231.962 67.7106 232.346 68.1635 232.825 68.4109C233.519 68.7693 234.203 68.6669 234.785 68.3875C235.349 68.1165 235.854 67.6654 236.263 67.2517C240.041 63.4381 241.973 58.6052 243.708 53.8123C244.197 52.4619 244.053 50.6466 242.574 49.6501ZM196.242 49.4197C194.62 48.8849 193.209 49.4766 192.047 50.4578C188.954 53.0692 186.654 56.2975 185.469 60.196C184.996 61.7496 184.905 63.443 184.912 65.0193C184.917 66.1624 185.158 67.8278 186.732 68.4431C187.541 68.7591 188.269 68.6528 188.904 68.3445C189.515 68.0479 190.045 67.5624 190.497 67.1208C190.533 67.0851 190.563 67.0491 190.577 67.033C190.59 67.0172 190.594 67.0126 190.595 67.0115C194.239 63.2979 196.166 58.6377 197.815 53.9587C198.299 52.586 198.162 50.958 196.715 49.6345L196.65 49.5759L196.57 49.5417L196.242 49.4197ZM227.042 30.822C226.616 31.0353 226.173 31.4496 225.733 31.9626C225.284 32.4862 224.802 33.156 224.302 33.9314C223.304 35.4836 222.217 37.493 221.171 39.6804C219.081 44.0489 217.127 49.1864 216.367 52.8933L216.138 54.0105L217.115 53.4226C217.17 53.3897 217.186 53.3857 217.283 53.3337C217.352 53.2965 217.474 53.2278 217.576 53.1091C218.017 52.5934 218.466 52.0675 218.892 51.5222C222.637 46.7348 225.812 41.5978 227.541 35.4119L227.547 35.3914L227.551 35.3699C227.606 35.0739 227.698 34.7731 227.802 34.4412C227.902 34.1188 228.014 33.7642 228.088 33.4031C228.239 32.6594 228.237 31.8393 227.684 30.9958L227.44 30.6228L227.042 30.822Z" fill="#020202" stroke="white"/>
<path d="M12.8145 30.7428C17.9706 25.9569 24.151 24.5253 30.9805 26.4723C33.5683 27.2101 35.5114 28.8507 36.499 31.4137C37.464 33.9185 37.0953 37.287 34.9863 39.1285C33.3123 40.5901 30.4319 41.3484 28.0479 40.3209C28.5182 39.7559 29.0201 39.154 29.5566 38.5026L29.5713 38.484L29.585 38.4655C30.6106 36.9558 31.1152 35.3378 30.8691 33.5748C30.6911 32.2998 30.0845 31.2202 29.1133 30.4742C28.1457 29.7311 26.8518 29.3449 25.3359 29.3834C21.9214 29.4702 18.9311 30.8539 17.0762 33.9459C16.1115 35.554 15.7548 37.242 16.0254 38.9274C16.2951 40.6067 17.1801 42.2397 18.6201 43.7623C19.6758 44.8786 20.7907 45.9382 21.8877 46.9889C22.9883 48.0431 24.0728 49.0901 25.085 50.1989C29.0985 54.5955 30.5399 59.6309 28.4482 65.3053C27.1546 68.8146 24.4453 71.1647 20.9951 72.6168C15.8063 74.8006 10.5288 75.1694 5.36914 72.816C-0.208518 70.2719 -1.18223 62.4621 3.43164 58.9078C4.90636 57.7718 6.60545 57.4368 8.45703 57.6715C8.81677 57.7172 9.2316 57.9075 9.52734 58.1549C9.67807 58.281 9.79097 58.3899 9.86816 58.4869C9.94522 58.5839 9.96545 58.6423 9.96973 58.6696C9.97178 58.683 9.97598 58.7141 9.93359 58.7828C9.88395 58.8632 9.775 58.9841 9.55371 59.1412C7.17478 60.83 6.52192 63.3609 6.92969 65.9967C7.11628 67.2026 7.62509 68.2103 8.40723 68.9655C9.18789 69.719 10.2166 70.1979 11.4062 70.3903C14.5062 70.8916 17.5381 70.4178 19.8379 67.8678C22.1036 65.3556 22.583 62.4288 21.5918 59.2125C20.628 56.085 18.4639 53.9021 16.3535 51.8014C14.7901 50.2452 13.2076 48.7787 11.8652 47.1149C9.72522 44.4624 8.73935 41.5101 8.89062 38.6656C9.04189 35.8238 10.3309 33.0481 12.8145 30.7428Z" fill="#020202" stroke="white"/>
<path d="M148.581 72.5753C145.847 75.6004 143.303 78.4785 140.673 81.2823C139.119 82.9387 138.587 84.8261 138.838 87.0059C139.344 91.4028 138.688 95.4081 135.648 98.7559C133.516 101.105 130.265 102.462 127.056 102.425C123.86 102.387 120.728 100.97 118.771 97.7911C116.638 94.3244 117.211 89.0129 120.208 85.7032C123.005 82.614 126.469 81.0567 130.637 81.0977C132.515 81.1163 134.309 80.7585 136.037 79.6719L136.099 79.6329L136.148 79.5772C138.068 77.3719 139.995 75.2498 141.765 73.0108C143.247 71.1345 144.61 69.1453 145.988 67.211C146.952 69.2034 147.877 71.1196 148.581 72.5753ZM129.789 83.5655C124.978 83.4315 120.885 86.6408 120.112 91.5684C119.781 93.6811 120.121 95.5299 121.102 96.9786C122.084 98.4268 123.665 99.416 125.705 99.8878C128.015 100.422 130.217 99.8856 132.327 98.4639L132.333 98.46C135.105 96.5402 136.567 93.8384 136.494 90.4727C136.409 86.5628 133.71 83.6748 129.789 83.5655Z" fill="#030303" stroke="white"/>
</svg>
